# xmcd CD database file
#
# Track frame offsets:
#	150
#	12585
#	27100
#	47172
#	60540
#	75215
#	96482
#	109925
#	124937
#	142602
#	152942
#	167110
#
# Disc length: 2530 seconds
#
# Revision: 0
# Processed by: cddbd v1.5.1PL0 Copyright (c) Steve Scherf et al.
# Submitted via: CDex 1.51
#
DISCID=9609e00c
DTITLE=The Strummers - Stand Again
DYEAR=1900
DGENRE=Punk
TTITLE0=Soul Shake Down R&R
TTITLE1=The Basement Rockers
TTITLE2=Stand Again
TTITLE3=Midnight Cry
TTITLE4=お前に会うために
TTITLE5=時代の目撃者たち
TTITLE6=Real Cool Fool Time
TTITLE7=Wasteland
TTITLE8=The Last Key
TTITLE9=Hot Road
TTITLE10=Shout and Shout!
TTITLE11=Back To The Street
EXTD=
EXTT0=
EXTT1=
EXTT2=
EXTT3=
EXTT4=
EXTT5=
EXTT6=
EXTT7=
EXTT8=
EXTT9=
EXTT10=
EXTT11=
PLAYORDER=
